<svg width="48" height="27" viewBox="0 0 48 27" fill="none" xmlns="http://www.w3.org/2000/svg">
<path d="M0.198242 14.7886C0.198222 9.40957 9.40699 4.21784 12.5824 1.97556C17 -1 20.2034 1.01458 22.7437 1.97556C24.776 2.74434 16.493 7.54417 13 10C18.7158 7.75772 44.6542 9.66338 46.5595 10.304C48.0837 10.8166 47 16 43.7016 16.7106C42 17.0771 40.0816 16.0699 35.763 14.7886C31.4444 13.5073 17.6631 14.2547 11.3122 14.7886C15.2286 16.2834 23.5059 19.5935 25.2841 20.8748C27.0624 22.1561 26.0251 24.8255 25.2841 26C24 28.5 0.198254 18 0.198242 14.7886Z" fill="#BF1800"/>
</svg>
