<?xml version="1.0" encoding="UTF-8"?>
<svg id="Lag_2" data-name="Lag 2" xmlns="http://www.w3.org/2000/svg" viewBox="0 0 673.28 285.93">
  <g id="Lag_1-2" data-name="Lag 1">
    <g>
      <path d="M224.14,147.67c6.91-1,16.46-1.49,21.03,4.74,3.83,5.22,9.8,30.33,11.74,37.99.77,3.04-1.14,7.85,3.69,7.31,6.27-.71,3.93-9.34,4.8-13.27,1.5-6.74,7.5-25.08,10.06-31.94,3.19-8.54,5.14-12.19,15.11-10.75,5.14.74,8.83,5.57,9.5,10.5,1.85,13.53.03,29.38.02,42.89,0,26.46.24,52.93-.13,79.37-4.16,2.35-11.36,3.19-15.89,1.73-9.53-3.08,1.26-37.22-5.43-37.52-2.54-.11-3.59,6.45-5.13,8.84-2.43,3.77-5.1,5.81-9.82,5.08-1.66-.26-6.79-3.19-7.64-4.39-1.08-1.53-2.33-6.42-3.27-8.22-.16-.3-1.1-.28-1.58-1.16-.57-1.06.92-3.91-2.75-4.03-5.88-.19-1.5,9.16-1.29,11.31.42,4.41.44,31.67-.95,33.86-1.84,2.89-5.58.55-7.63.64-5.77.26-10.55,3.57-13.01-4.92-.27-.94-1.45-7.9-1.45-8.55v-119.5Z"/>
      <path d="M622.96,224.86l-3.9.24-.41,51.57c-1.3,2.16-13.15,1.33-16.03,1.01-1.85-.21-4.65-.7-5.32-2.68-1.13-3.37.07-14.18-.18-18.82-.73-13.53-.15-22.59.06-35.97.38-23.86-.73-47.76.4-71.6,1.7-2.43,18.17.61,20.86,2.26,6.95,4.26,9.63,22.75,11.99,30.01,3.59,11.02,8.28,20.91,10.48,32.52.55,2.89-1.11,11.33,3.74,11.32,3.08,0,4.24-7.17,4.48-9.56,1.97-19.95-3.97-46.34.25-64.76,1.76-7.67,13.25-8.53,19.77-7.23,4.34,2.06,4.38,15.73,3.99,19.99-2.52,27.61-5.82,55.59-9,83-1,8.66,1.58,35.36-11.47,35.6-2.02.04-9.93-1.54-11.76-2.35-5.09-2.24-6.76-8.94-8.12-13.88-2.66-9.66-4.5-19.83-6.56-29.44-.83-3.89-.23-7.58-3.25-11.23Z"/>
      <path d="M29.36,228.88c-1.28,3.33-1.35,6.8-1.27,10.33.25,10.65,3.15,23.25,3.12,33.96,0,3.82-1.72,10.19-5.81,11.27-6.08,1.61-19.47,3.07-21.83-4.71-1.35-4.46-2.06-16.31-2.43-21.57-1.97-27.61-1.01-53.57.03-80.95.2-5.2-1.13-19.24.12-22.88,1.42-4.13,23.11-9.79,26.6,3.08,4.36,16.09-2.47,34.94,1.35,51.15l14.9-1.37c1.18-.69,1.52-2.8,1.92-4.08,1.33-4.19,1.87-14.06,2.1-18.9.67-13.85-5.83-36.3,14.46-35.63,8.85.29,9.88,8.36,10.48,15.6,2.07,25.09-.65,53.4-.03,79.03.21,8.5,1.81,18.42,2.1,26.94.42,12.26-15.18,15.26-21.08,9.04-6.96-7.35-2.06-36.98-4.74-47.26-2.87-6.73-14.22-3.87-20.02-3.04Z"/>
      <path d="M322.37,35.9c-2.93,2.94-.07,8.99-.15,12.26-.12,4.58-1.97,10.31-2.13,14.96-.81,23.57,1.46,47.59.94,70.93-.15,6.59-2.56,9.88-9.34,9.63-20.94-.75-14.54-17.3-15.55-31.53-.21-3-1.76-5.53-2.05-8.95-1.76-20.66,4-41.3,2.09-61.09-.71-7.38-3.44-9.72-10.56-10.44-18.61-1.87-39.69,1.72-58.55-.45-5.85-1.98-5.9-17.92-4.92-23.04,1.32-6.9,16.82-4.2,22.52-4.48,34.4-1.66,68.99,1.71,103.52,2.39,6.84.21,5.64,15,4.87,20-2.43,15.75-25.41,4.49-30.7,9.8Z"/>
      <path d="M521.13,82.67c7.71,1.47,7.24-3.27,10.71-8.02,25.74-1.03,7.32,15.35,8.29,24.43.4,3.68,6.82,12.12,8.53,16.55,3.51,9.07,6.02,17.76-6.15,18.93-3.42.33-11.53-1.05-13.17-4.11-.99-1.85.95-7.03-5.47-6.62-3.57.23-2.43,3.36-4.06,6-6.23,10.06-22.97,20.61-33.62,11.27-.95-.83-8.75-9.57-8.98-10.21-.89-2.46-.67-6.91-1.16-9.64-.31-1.72-1.66-2.83-1.97-5.03-1.08-7.72,1.95-20.84,5.03-28.08s10.51-14.07,8.73-22.7c-.55-2.68-3.05-4.36-3.6-5.59-7.17-16.14-11.45-41.89,8.17-51.4,7.83-3.8,14.04-3.94,21.9-.46,15.55,6.89,17.19,21.86,12.3,36.66-2.05,6.2-3.96,7.9-7.31,12.69-8.12,11.63,2.03,14.13,1.82,25.33ZM501.37,29.9c-2.99,3.1-2.2,12.62,2.27,14.73,4.53-1.76,7.85-14.32,2.83-15.86-1.27-.39-4.2.2-5.1,1.13ZM509.75,116.29c9.31-13.21.24-16.14-4.58-28.16l-4.4-.35-1.47,1.54c-.87,8.3-7.43,17.41-5.92,25.61.37,2.02,4.51,8.41,6.41,8.47,3.13.09,8.25-4.67,9.96-7.11Z"/>
      <path d="M552.14,208.17c6.17,5.35,20.94-3.49,26.39.39,2.62,6.43,4.24,23.54-2.47,27.53-11.98,7.13-30.79-6.72-23.75,18.4,1.78,2.76,16.74-.55,20.34-.81,2.1-.15,12.55-.83,13.53-.58,5.35,1.37,4.42,18.02,2.04,21.91-.73,1.19-6.2,3-7.85,3.39-6.93,1.62-32.85,3.94-39.71,3.26-14.88-1.48-10.53-12.06-11.52-22.47-1.78-18.7-1.33-26.61,0-45.02,1.22-16.79-3.38-35.94-4.03-52.95-.15-3.94.04-7.97.17-11.91.78-2.28,17.26-4.46,20.33-4.67,7.47-.5,18.57-.49,26.03.05,8.81.64,16.12,1.35,14.46,12.43-.34,2.24-1.77,8.25-2.42,10.59-3.33,12.06-22.59,4.17-30.32,7.63-2.9,1.3-1.21,4.45-1.21,5.84v27Z"/>
      <path d="M172.86,140.42c-.1.25-3.7,3.41-3.94,3.52-3.79,1.77-12.79-.96-15.36-4.19-4.54-5.69.56-26.24,1.45-33.71,3.39-28.2,6.29-57.65,14.43-84.57C172.78,10.39,174.17-.52,188.49.02c17.16.65,12.7,24.58,13.64,36.15,2.17,26.7,6.72,53.41,8.9,80.1.43,5.21,1.76,18.27-.41,22.38s-15.97,4.1-18.97,1l-1.45-3.55c.24-14.37-3.97-28.31-4.26-42.74-.55-1.85-4.3-4.15-6.15-3.61-5.9,1.73-4.28,28.02-4.67,33.4-.18,2.47-1.76,16-2.26,17.26ZM186.14,65.17c.78-2.74,0-13.16,0-17,0-1.97-2.73-11.83-5.51-7.51-.58,5.23-4.88,21.22-1.93,24.95,2.04,2.58,6.59,2.57,7.44-.44Z"/>
      <path d="M215.79,148.05c3.27,1.46,2.76,9.7,2.3,13.07-4.15,29.98-9.13,60.79-14,91.01-.24,1.51-1.69,2.58-1.9,4.1-.58,4.07.51,8.26-.48,12.52-2.23,9.63-15.08,12.53-23.64,10.5-7.04-1.67-3.92-5.14-5.17-9.83-4.62-17.46-9.97-35.05-13.51-52.49-3.71-18.28-4.82-40.64-9.68-57.32-.84-2.9-2.43-5.3-2.64-8.26.69-3.36,22.51-5.13,25.32,1.58.99,2.36,2.36,13.85,2.73,17.27,1.22,11.24,1.29,22.23,3.27,33.73,1.2,6.97,3.7,13.64,3.83,20.65,3.53,2.72,7.64-4.49,7.9-7.49.16-1.85-.88-3.48-.8-4.91.77-13.05,1.99-28,3.9-40.9.7-4.71,2.6-17.12,4.11-20.89,1.66-4.12,14.73-3.98,18.44-2.33Z"/>
      <path d="M334.45,220.98c-4.92,4.58-5.18,34.43-7.43,43.07-2.51,9.64-9.15,8.55-17.48,6.71-2.15-1.69-1.58-10.53-1.45-13.64.59-13.35,3.55-29.39,5.12-42.88,1.96-16.82,4.82-34.5,6.87-51.13.65-5.31-1.21-9.94,2.04-14.96,4.67-7.22,20.15-10.73,26.02-4.01,2.29,2.63,5.76,13.24,6.93,17.07,7.87,25.97,16.43,60.7,20.11,86.89.38,2.71.29,20.23-.99,21.11-13.54,2.05-19.19-3.71-21.83-16.29-1.9-9.05.96-26.01-6.3-31.7-3.56-2.79-8.11-3.53-11.62-.25ZM336.14,202.67c12.9,2.9,8.91-17.92,4.49-22.99-2.09-2.4-4.49,1.44-4.49,2.49v20.5Z"/>
      <path d="M520.82,216.4c-2.49,5.41-2.37,13.38-4.45,19.99-4.57,14.5-30,39.32-45.69,40.31-7.14.45-13.93-.12-12.51-9.44.78-5.11,5.44-6.43,7.19-10.88,4.45-11.34.1-26.42-.26-38.17-.36-11.94,2.26-42.38-1.59-51.45-.97-2.28-3.24-3.04-3.44-4.54-.73-5.72.25-10.87,6.54-11.55,17.06-1.84,45.47,8.33,50.3,26.72,1.95,7.44,6.65,33.04,3.9,39.01ZM489.59,185.22c-2.11-2.44-4.38-6.51-6.49-1.02l2.05,58.46c3.59.31,5.38-1.65,7.03-4.46,8.15-13.9,7.98-40.76-2.58-52.98Z"/>
      <path d="M212.14,44.67c4.46-.25,10.22-2.06,14.5-2.09,3.1-.02,5.85,1.21,8.95,1.13,9.54-.24,43.71-3.88,49.15,2.85,3.33,4.13,5.69,20.69.39,23.59-5.72,3.13-22.4-2.63-24.5,6.48-3.79,16.44,1.5,44.46-.49,62.54-.3,2.77-1.4,7.92-4.5,8.49-2.89.54-10.98-.15-13.73-1.27-7.65-3.09-3.81-19.08-3.73-25.19.22-15.81.19-31.73-.56-47.52-2.37-5.38-14.54-2.05-19.77-3.23-1.39-.31-5.71-3.48-5.71-4.29v-21.5Z"/>
      <g>
        <path d="M452.69,149.61c-1.98-2.01-4.91-2-7.87-1.96-.37.02-.83.02-1.4.01-.09,0-.16,0-.25,0-.11,0-.23,0-.34,0-7.42-.09-7.72.57-7.72.57-4.12,6.98-1.04,14.67-.93,21.89.2,13.54-1.31,27.66-.95,40.94.15,5.45,4.29,11.67.34,17.54-4.55,6.76-6.96-4.1-8.2-7.68-2.93-8.39-6.05-17.67-9.24-26.74-4-11.35-7.25-25.65-12.54-36.46-3.21-6.57-19.76-10.06-23.43-3.27-2.87,5.32,1.62,23.8,2.02,30.69,1.53,26.49.22,54.46.92,81.08.71,6.92,8.51,8.56,14.33,7.24,12.48-2.83,2.62-32.97,8.23-40.77,3.36-.77,5.9,13.69,6.81,16.17,1.92,5.25,6.24,17.46,9.66,21.3,6.01,6.73,20.19,9.08,26.06,1.08,3.97-5.42,6.63-24.96,6.99-32.01,1.02-19.59,2.46-65.01-.81-82.26-.53-2.79.52-5.12-1.67-7.34Z"/>
        <g>
          <path d="M380.77,98.57c4.94-2.79,21.8-.42,24.42-3.35,3.46-3.87,2.84-21.47-1.77-25.57-5.67-1.52-19.69,3.35-23.32-.46-3.15-3.31-2.94-26.33,2.26-28.8,4.9-2.33,18.01.25,24.22-.78,2.31-.38,4.69-2.52,6.79-3.87,0,0,.01-.01.02-.02,2.43-1.69,2.73-5.34,2.77-6.13l-.02.07c.01-.07.02-.16.02-.24l-.07-2.11c-.6-5.37-3.82-15.54-6.63-16.48l-48.23-.07c-1.49,5.24-2.76,8.18-.19,13.42-5.94,33.69-6.63,75.44-3.95,110.01.71,9.17,1.05,11.69,10.5,12.5,8.53.73,25.65.85,34.05-.04,1.46-.15,3.73-.34,4.56-1.67,1.99-3.14,1.19-21.36-1.03-24.89-4.33-6.91-22.41,2.56-25.32-3.68-1.24-2.67-1.33-16.3.9-17.85Z"/>
          <path d="M466.75,123.55c-2.28-5.82-3.75-12.49-5.83-18.17-1.84-5.03-7.99-13.99-6.57-18.99.59-2.07,3.62-3.86,4.39-5.13,8.88-14.57,12.43-45.53,2.22-59.92-7.34-10.33-27.36-14.39-40.04-13.8-.99.88-1.76,2.23-1.78,4.3-.07,6.02.17,25.83-1.72,30.03,0,.01,0,.02-.01.03-.5,1.76-1.15,3.54-1.26,5.27-.97,15.98,2,30.8,2.08,45.99.08,16.43-2.12,28.5.03,45.91,1.1,8.87,9.37,4.92,15.15,7.97,1.62-.24,2.99-.68,3.98-1.07,6.36-5.21,1.39-13.97,2.75-21.3,1.08.01,2.27-.18,3.31.19,3.71,1.3,5.86,16.19,12.94,19.06,3.14,1.28,16.41,1.88,17.62-1.92,1.26-3.95-5.56-14.08-7.26-18.43ZM442.88,71.91c-1.12,2.82-4,3.85-6.3,1.8.6-9.16-2.53-20.79-1.5-29.6.16-1.36.04-2.85,1.66-3.38,4.95-1.63,8.9,8.96,9.14,12.68.26,4.03-1.47,14.63-3.02,18.49Z"/>
        </g>
      </g>
      <g>
        <path d="M99.18,139.12c2.44,6.83,5.92,6.43,10.52,8.66,3.68-.39,7.57-1.96,9.55-6.44.25-.68.5-1.34.68-1.93.01-.05.03-.09.04-.13.11-.39.2-.74.23-1.04,1.49-13.74-.41-30.75-2.02-44.13-1.6-13.27-.08-14.81,12.72-16.17,5.08-.54,17.28.91,20.32-1.68,4.7-4,3.9-22.41-2.59-23.59h-26.5c-2.95-7.08-3.08-15.71.23-22.77,6.7-4.35,34.53-1.71,38.21-6.29,4.58-5.7,4.65-21.37-4.99-22.88-8.33-1.3-16.76-.03-24.9-.02-6.03,0-29.47-1.13-32.94,1.06-1.25.79-2.08,2.18-2.39,3.61-.62,2.82-1.07,10.39-1.25,13.75-.82,15.37,1.98,30.73,2.08,46,.12,19.39-3.2,56.57,3.01,74Z"/>
        <path d="M143.84,165.46c-1.93-7.88-5.57-17.41-14.48-19.52-4.14-.98-6.24.51-9.73.74-.19.01-.35,0-.5-.03-1.88.27-4.65.91-7.02,2.5-1.99,2.58-3.32,5.5-4.43,8.55-11.02,30.19-17.6,68.37-20.55,100.45-.35,3.8-.64,18.86.21,21.8,1.92,6.61,19.21,7.31,23.76,4.17,4.37-3.02,5.63-15.87,6.03-20.97.51-6.52-.89-25.17,1.94-30.05,1.33-2.29,5.6-3.25,6.9-1.26.24.37,1.82,7.59,1.94,8.55,1.03,8.36-.92,34.77,4.77,40.23,2.87,2.76,12.06,1.73,15.76.83,2.53-.62,5.31-3.86,5.7-6.37.49-3.13-2.65-13.4-2.98-17.93-2.04-28.57-.51-64.04-7.3-91.7ZM126.14,205.67c-13.42,5.43-7.56-19.13-4.95-25.96h2.89c-.11,1.81,2.05,5.37,2.05,6.46v19.5Z"/>
      </g>
    </g>
  </g>
</svg>