<?xml version="1.0" encoding="UTF-8"?>
<svg id="Lag_2" data-name="Lag 2" xmlns="http://www.w3.org/2000/svg" viewBox="0 0 322.5 329.06">
  <defs>
    <style>
      .cls-1 {
        fill: #bf1b18;
      }
    </style>
  </defs>
  <g id="Lag_1-2" data-name="Lag 1">
    <g>
      <path class="cls-1" d="M169.92,2.81c1.31,1.37,1.23,3.93,1.08,5.69-.07.81-1.17,2.14-.09,2.48,1.62.5,4.27-.54,6.26-.26,1.15.16,3.85.91,5.03,1.3s5.05,2.51,5.93,2.37c.68-1.04,1.74-1.59,2.54-2.53.92-1.08,3.31-5.33,4.1-5.72,2.31-1.16,9.64.6,12.31,1.33,5.54,1.51,9.51,4.01,14.53,6.47,2.12,1.04,5.2,1.53,6.74,3.35,1.74,2.05,1.83,6.74.33,8.91,1.32.71,2.52.93,3.77,1.88,2.21,1.66,6.18,9,7.28,11.72.67,1.67.95,3.52,1.64,5.19,2.81.45,5.4-1.65,8.04-1.54,1.36.06,5.78,2.24,6.77,3.23,1.53,1.53,2.34,6.44,3.23,8.77,1.48,3.87,6.42,11.58,5.11,15.6-.46,1.41-2.74,1.2-2.52,2.14.17.73,2.16.76,2.85,1.16,1.32.77,3.03,5.11,3.39,6.61.45,1.86.67,4.15.76,6.08.58,0,1.18-.07,1.76.07,2.36.59,6.31,4.93,7.15,7.18,1.84,4.89.05,14.03-1.33,19.15-.25.94-1.79,5.88-2.3,6.2-.59.37-3.23.06-3.58-.81-.38-.93,1.62-1.45,2.31-2.3,1.45-1.77,1.02-3.6,1.48-5.52,1.67-7.02,4.42-12.09-.67-18.63-1.08-1.39-2.79-2.17-3.65-3.7l-.84.24c-1.35,3.62.12,9.05-4.69,10.58-3.5,1.11-10.98.13-14.71-.57-11.12-2.1-23.76-7.81-35.11-7.92-5.31-.05-17.42,1.6-22.23,3.77-1.73.78-2.52,1.74-4.67,2.34-.35.1-.38.42-.76-.08l-.12-1.98c3.43-.83,6.43-2.41,9.89-3.27,10.5-2.62,21.63-3.04,32.16-.69,8.71,1.95,17.51,6.07,26.44,6.89,1.61.15,6.15.28,7.57-.04.76-.17,1.8-1.15,2.19-1.81,1.61-2.77,1.32-10.76.69-13.92-.25-1.27-1.51-4.4-2.46-5.2s-5.34-1.86-6.67-2c-6.03-.61-14.72-.29-20.99-.31-7.3-.03-10.38.96-17.25,2.45-1.05.23-2.12-.13-3.12.5-2.29-2.98,1.63-3.36,3.88-3.52,2.81-.21,3.91-.56,6.58-1.01,9.1-1.53,18.44-.24,27.55-.09,1.25.02,2.69-.82,4.18-.01,0-2.15,3.08-2.17,4.51-3.32.56-.82-.11-2.73-.36-3.66-1.47-5.44-5.35-11.45-7.01-16.98-.72-1.37-3.6-3.14-5.04-3.29-1.21-.12-6.62,1.6-7.43,2.42-.93.94.32,5.67-2.16,8.17-4.07,4.11-13.16,4.14-18.68,5.98-6.42,2.14-19.21,7.59-24.6,11.4-3.17,2.25-7.19,7.01-10.24,8.76-.67.39-1.16.64-1.98.51.22-.28.05-.78.12-.91.27-.49,2.95-3.39,3.54-3.92,7.02-6.43,11.21-7.91,19.67-11.66,5.97-2.65,11.57-5.53,17.99-7.01,4.29-.99,12.84-1.15,13.65-7.02.87-6.34-3.76-15.96-7.65-20.88-1.36-1.72-3.14-2.99-5.47-2.93-10.41.27-17.84,10.93-24.18,17.85-3.13,3.42-6.33,5.97-9.15,9.85-4.77,6.57-8.78,13.38-13.8,19.86-1,1.29-1.1,2.79-3.05,3.11-.3-.89-.31-1.47.19-2.31,1.28-2.13,3.6-4.49,5.08-6.59,3.55-5.02,7.16-11.31,10.92-16.08,1.63-2.07,3.97-3.54,5.65-5.34,6.4-6.87,13.05-17.12,21.86-20.82,3.49-1.47,6.32-.75,7.47-5.53.53-2.21-.29-3.38-2.06-4.62-2.46-1.72-7.86-4.35-10.71-5.63-3.26-1.46-11.66-4.51-14.99-4.68-.97-.05-2.1.46-3.17.24-2.75,2.17-3.83,5.01-5.26,8.08-.13.28-.66.24-.66.42.01.54,1.19,1.67,1.35,2.99.22,1.76-.15,4.18-.87,5.81-.43.98-4.3,7.89-4.8,8.44-.35.39-1.11.94-1.67.92-.29-.3,2.63-6.57,3.04-7.46,1.49-3.19,4.29-5.12,1.14-8.56-4.52-4.94-19.25-7.27-24.84-3.8-3.4,2.11-5.6,10.26-6.26,14.07-1.82,10.46-1.61,21.41-2.45,31.88-.25,3.15-.55,7.01-1.3,10.03-.12.46,0,1.04-.66,1.17-.09-.67-.51-1.12-.6-1.82-.26-1.9.03-8.37.25-10.35,1.23-10.75,1.41-23.08,3.43-33.57.86-4.46,2.87-11.98,7.14-14.19,1.17-.61,3.04-.6,3.6-1.06.37-.31,1.4-2.3,1.48-2.86.32-2.18-.52-3.59-2.35-4.6-4.73-2.62-10.15-.39-15.17.42-2.99.48-5.66.13-8.64,1.36-4.16,1.72-4.99,4.32-4.82,8.68,6.33-1.05,7.47,5.31,8,10.17.94,8.64,0,19.41-.02,28.32-.01,5.32.7,11.66.04,17.02-.08.69-.44,1.31-.87,1.83l-.84-.21c-.68-1.32-.08-2.68-.11-3.94-.29-13.55,1.19-26.18.15-40.05-.31-4.16-.24-10.03-5.54-10.79-4.82-.69-11,.18-15.11,2.83-6.21,3.99-6.74,6.02-5.27,13.22s4.59,13.74,5.99,20.34c.04.21,1.33,3.19.09,2.58-.57-.75-1.18-1.55-1.63-2.37-2.87-5.17-8.24-22.93-7.19-28.45.36-1.89,1.29-1.6.57-4.6-1.26-5.24-3.73-5.71-8.67-4.84-5.35.94-11.91,6.69-15.76,10.57-.83.83-3.88,4.93-4.07,5.93-.68,3.6,2.61,7.57,4.45,10.45,1.11.02,1.45-1.11,2.38-1.61,2.48-1.34,4.25-1.45,6.26.58,2.49,2.53,6.32,9.21,8.5,12.5,6.1,9.18,9.75,16.84,18.16,24.17,1.6,1.39,3.76,2.69,3.16,5-1.83.4-1.85-.9-2.64-1.52-8.19-6.35-11.36-13.42-16.9-21.77-2.39-3.6-5-7.03-7.4-10.6s-3.62-9.55-8.91-5.13c-1.17.98-4.07,4.96-4.96,6.37-1.14,1.8-5.29,10.13-5.42,11.85-.51,6.77,8.04,13.45,11.1,19.08.22.4,1.2,1.86.28,2.04-.74.15-6.04-6.25-6.81-7.26-3.09-4.02-7.4-9.87-6.6-15.16.15-1.02,1.66-4.36,2.19-5.48s1.54-2.04,1.74-3.24c-.06-.64-4.51-7.15-5.01-7.36-.73-.3-2.62-.33-3.32,0-3.53,1.63-7.12,7.57-9.25,10.75-1.48,2.21-5.22,6.16-4.58,9.13.13.58,3.7,3.49,4.04,3.56,1.44.29,3.18-1.97,6.11-.09,1.38.89,4.86,4.81,6.23,6.27,7.6,8.06,16.46,19.75,27.79,22.71,1.32.35,6.04.41,5.18,2.49-.69,1.67-3.16.58-4.51.17-10.11-3.02-19.01-12.07-26.14-19.53-2.39-2.5-6.18-7.91-8.7-9.63s-4.79-.47-6.91,1.36-4.71,10.17-5.5,13.24c-.98,3.77-1.81,6.61,1.06,9.76,1.97,2.15,14.24,8.25,16.93,7.93,1.65-.2,3.83-1.18,5.53-1.51,5.98-1.15,10.88-.71,16.86-.07,3.97.43,9.06.89,12.66,2.67.52.26,1.88.96,1,1.66-1.43,1.13-5.91-.63-7.72-.94-6.85-1.14-16.09-2.68-22.81-.99-.97.24-5.53,1.88-6.16,2.34-1.32.97-4.24,7.4-4.67,9.16-.77,3.16-.71,7.64.96,10.52.2.34,1.25,1.75,1.51,1.84,1.54.53,5.94-2.98,7.96-3.6,2.9-.89,6.46-1.2,9.43-1.9,4.89-1.16,10.09-3.31,15.23-2.96.3.02,1.66.41,1.5,1.01-.29,1.93-5.61,1.37-7.09,1.58-4.76.68-16.09,3.23-20.37,4.96-3.32,1.34-5.59,4.82-8.86,1.43-2.14-2.22-2.32-7.07-2.37-9.99-.02-1.3.59-2.24-.06-3.76l-5.96-.87c-5.06,1.53-2.76,7.13-2.62,10.97.18,5.13.32,11.62,0,16.7-.08,1.33-.4,2.54-.68,3.82.91-.41,1.89-.05,2.8-.35.63-.21,1.98-1.63,2.9-2.11,3.85-2.03,8.79-3.48,12.71-5.29,2.84-1.32,6.09-3.73,8.86-4.81s6.02-1.4,8.83-2.24c3.51-1.04,7.05-2.22,10.49-3.47,2.4.2,2.44,1.65.25,2.62-8.52,3.76-21.53,4.42-29.29,10.3-.32.24-.19.84-.75,1.32-1.27,1.09-3,1.24-4.2,1.8-2.15,1-7.31,3.75-9.1,5.23-1.07.88-2.51,3.93-2.77,5.26-.2,1.04,1.67,7.45,2.21,8.65.63,1.38,2.68,3.6,3.67,5,1.67,2.35,1.6,4.52,5.25,2.79.58-.27,4.46-3.54,5.15-4.19,3.79-3.57,5.48-8.18,10.22-11.45.44-.3,2.4-1.77,2.78-1.39.03,2.7-2.55,3.37-4.01,4.82-3.61,3.58-6.58,7.72-9.98,11.36-3.82,4.1-10.68,6.68-12.93,12.07-.29.7-.74,2.12-.68,2.84.25,2.96,7.12,10.49,9.25,13.08,1.16,1.41,3.7,6.05,5.82,5.83.17-.02,2.85-1.04,3.16-1.2.55-.28,1.97-1.35,2.02-1.96.07-.86-4.07-4.92-4.92-6.07-4.54-6.12-4.28-14.12.6-19.94.67-.8,1.62-1.17,2.18-1.82,4.96-5.76,10.04-11.5,15.27-16.9,1.19-1.23,12.01-11.13,12.88-10.45l.67,2.67c-.75-.61-.94.49-1.59.98-7.28,5.38-11.66,9.88-17.9,16.37-3.7,3.85-12.25,11.89-13.34,16.98-1.43,6.64,3.67,12.93,8.5,16.84,1.25,1.01,2.88,2.47,4.52,1.51,2.41-1.4,5.37-13.06,6.75-16.25.3-.7,2.13-5.02,3.06-4.1-.11.97-.19,2.13-.44,3.06-1.5,5.63-4.97,11.71-6.54,17.47-.6,1.82-3.81,2.48-4.52,3.14-.35.32-3.72,7.92-3.94,8.73-.35,1.27-.17,2.47.76,3.45.48.51,1.1.54,1.43.83,4.44,3.96,10.61,10.77,16.81,10.98,1.07.04,1.45-.75,2.44-.32-1.11-2.66-3.64-3.05-5.13-5.7-.85-1.52-2.28-6.19-2.17-7.81.04-.49.91-3.94,1.11-4.83,2.47-10.76,6.52-23.74,10.02-34.31.92-2.78,2.27-6.78,3.73-9.26.19-.32.02-.45.59-.44,2.5.04.15,2.53-.32,3.7-3.51,8.68-6.76,20.8-9.34,29.99-1.74,6.21-5.18,15.96-1.45,21.79,2.07,3.23,10.04,6.33,13.74,6.11,1.63-.1,2.95-1.3,3.45-2.81,1.83-5.5,2.07-13.41,2.79-19.21.82-6.57,1.55-11.81,1.72-18.38.07-2.64.42-5.31.24-7.99l.31-.69,1-.13c1.33,2.02.14,3.51.03,5.49-.68,11.67-.76,23.08-2.76,34.57-.47,2.68-1.51,9.11-3.24,11s-6.24.49-6.62,2.15c-.29,1.25.9,5.58,2.3,6.25.87.42,7.28,1.69,8.52,1.81,2.34.23,4.81-.03,7.23.19,3.98.37,8.42,2.49,11.92-.02l.07-1.54.92-3.09c-1.69-.93-5.11.73-6.83.77s-5.71-1.15-6.57-2.7c-.27-.49-1.15-2.98-1.21-3.49-.34-2.87.28-6.94-.05-9.59-.12-.98-.67-1.57-.71-2.65-.05-1.33.73-2.57.68-3.65-.04-.78-.6-1.6-.66-2.68-.32-5.45.88-13.92,1.73-19.64.53-3.59,1.35-9.73,2.32-13.02.27-.91.87-1.24,1.48-1.85.8-.16.51.65.46,1.13-.27,2.55-1.62,5.64-1.94,8.06-1.72,13.05-2.69,26.14-1.36,39.3.31,3.03.09,6.26,3.42,7.24,4.53,1.33,18.77-1.93,22.82-4.66,2.48-1.67,1.52-3,.21-5.37-7.65-13.75-12.97-24.58-16.36-40.3-.39-1.81-.76-3.42.25-5.07.69-.49,1.34,1.58,1.45,1.97,1.6,6.1,2.55,12.45,4.54,18.54,2.36,7.26,6.2,13.95,9.84,20.49,1.07,1.92,4.6,6.65,4.76,8.55.28,3.18-7.55,4.56-8.42,6.45-.56,1.22,1.07,5.32,2.07,6.01,1.37.95,6.16.97,7.85.57,4.95-1.16,10.37-2.51,15.14-4.52,6.39-2.69,3.34-2.78,3.06-8.68-.45-.72-6.29.42-7.74.26-2.65-.3-3.27-2.56-5.43-3.76-2.55-3.63-5.54-7.65-7.58-11.58-.5-.96-2.41-5.13-1.85-5.94.46-.18,1.2-.36,1.57.05.49.55,1.72,4.04,2.35,5.15,2.12,3.71,5.56,9.19,8.9,11.77,1.65,1.27,2.81,1.8,4.95,1.64,5.92-.45,11.57-4.92,17-7.01,2.27-1.94,1.46-4.38-.13-6.45-4.08-5.3-12.05-11.88-17.07-16.52-2.22-2.05-5.07-4.2-7.09-6.32-2.99-3.14-5.67-8.06-8.65-11.02-.62-.62-1.65-.88-2-1.34-.49-.66-1.34-3.48-.34-3.98l2.68,2.32c7.27,11.32,17.75,19.81,27.31,29.02,4.54,4.38,9.93,6.9,8.82,14.14-.45,2.94-3.26,2.61-3.83,3.51-.63.99,1.05,1.73.52,2.67,9.46.83,16.58-6.75,23.5-11.99.6-.45,1.25-.39,1.84-.92s1.82-2.83,1.88-3.63c.21-3-1.76-3.38-3.72-4.82-2.08-.16-5.2,1.81-7.33,2.04-5,.55-15.96-5.84-20.49-8.53-.4-.24-.68-.82-1.03-.98-.95-.42-2.07.24-2.23-1.72-.38-4.41,4.81.66,5.94,1.35,6.22,3.75,14.13,8.52,21.57,6.31,1.73-.52,1.72-1.18,2.64-1.78,3.39-2.2,8.89-4.76,11.23-8.02,1.92-2.68,2.86-9.95,1.14-12.76s-10.02-4.02-13.36-4.98c-11.64-3.35-26.47-6.78-36.17-14.16-.93-.71-5.02-4.89-5.28-5.73-.29-.92-.13-1.5.74-1.98,1.74.37,2.07,2.35,3.12,3.46,10.84,11.5,33.89,13.91,48.15,18.85,1.76.61,3.41,1.63,4.52,3.15,2.4,3.31,1.52,12.16-.92,15.41-.81,1.07-3.89,2.96-3.76,4.23,3.29,3.23,6.14,3.16,9.23-.26,1.71-1.89,1.57-3.55,2.71-5.45,2.63-4.38,5.22-8.74,7.8-13.2.74-1.28,2.8-3.3,2.55-4.65-.41-2.26-5.64-3.3-7.2-4.82-1.85.21-4.23-1.44-5.64-1.66-1.17-.18-4.14,2.06-5.87,2.12-1.54.06-4.97-.65-6.64-.98-6.06-1.2-15.25-3.8-20.68-6.65-.65-.34-2.48-1.54-2.23-2.38.18-.35.6-.64.97-.73,1.06-.28,6.58,2.68,8.11,3.25,7.01,2.62,15.25,4.11,22.66,4.88,2.09-1.26,4.48-2.44,6.4-3.94,3.48-2.71,10.87-10.82,10.32-15.39-.17-1.46-.98-2.47-2.34-2.93-6.83-2.3-17.38-3.08-24.64-3.7-9.76-.84-21.41-.77-30.99-2.67-1.82-.36-4.35-1.7-6.18-2.18-.94-.25-2.36.54-2.64-.91.09-1.15,1.81-1.75,2.74-1.57.36.07.26.73.7.89,1.51.57,4.27.84,5.94,1.21,17.61,3.89,35.92,3.13,53.71,6.29,3.35.59,6.08,1.92,6.17,5.83,0,.39-.94,3.66-1.13,4.14-.69,1.69-2.69,3.27-1.81,5.29,2.9-.22,3.86,2.15,6.48-.28.86-.8,4.69-6.07,5.42-7.24,1.55-2.47,2.6-5.49,3.88-8.12,1.2-2.46,2.04-2.56,2.47-5.86.41-3.11.25-4.57-1.66-7.1-1.03-.73-6.4,7.17-9.45,7.25-1.33.04-3.05-.93-4.43-1.19-9.94-1.89-20.32-3.28-30.15-5.52-1.64-.37-8.61-1.9-9.44-2.56-.35-.28-.59-.51-.49-1,.22-.2,4.38.32,5.07.42,9.86,1.52,20.36,4.17,30.18,6.15,1.68.34,7.71,1.65,8.9,1.42,1.82-.35,6.25-5.91,6.98-7.69.51-1.24,1.95-6.27,2.13-7.56.32-2.27-2.23-5.28-4.2-6.32-4.5-2.36-16.44-1.2-21.92-1.42-4.77-.19-9.89-1.15-14.64-1.36-4.09-.18-8.22.26-12.29.22-2.12-.02-4.46-.67-6.74-.55-1.96.1-3.87,1.11-5.36,1.25-1.26.12-3.26-.33-4.85-.12-2.54.33-5.4,2.06-7.57.17l.52-1.3c1.72.39,2.81-.58,4.36-.9,3.11-.64,7.81-1.44,10.91-1.77,2.17-.23,6.8.86,9.34,1.01,10.78.62,21.56,1.2,32.34,1.32,5.5.06,11.21-.36,16.56,1.44,4.38,1.48,7.21,7.39,5.76,11.74-.17.51-.71.78-.91,1.27-1.39,3.43.07,3.97,2.23,6.25.31.33.95.54,1.08.74.19.3.14.93.4,1.42,1,1.86,5.46,2.58,7.54,3.47,10.41,4.45,22.11,17.54,26.28,28.05.34.86.42,2.55.62,2.88.35.57,3.02,2.76,3.73,3.77s2.15,4.85,2.61,5.23c.53.44,2.56.76,3.39,1.44,4.16,3.41,7.3,13.15,6.04,18.33-1.06,4.35-3.4,6.06-7.83,6.33-.06,1.69-1.44,3.96-2.42,5.42-.63.94-1.27,1.38-1.87,2.11-.37.45-1.31,2.28-1.47,2.38-.47.28-4.41.75-5.17.64-.93-.13-3.56-1.17-4.25-1.21s-2.17.81-3.28.86c-4.32.18-8.79-.85-11.73-4.21-1.48-1.7-2.15-4.33-3.5-5.83-.75-.83-1.72-.98-2.29-1.71-.29-.38-2.66-5.92-2.94-6.72-1.14-3.29-1.91-7.2.24-10.23s5.17-4.36,8.11-6.22c2.21-1.4,2.6-3.5,3.58-5.69.19-.42,1.25-.25.32-1.78-.3-.49-2.78-3.14-3.35-3.65-2.92-2.68-10.77-7.31-14.58-8.09-1.8-.37-4.76.14-6.55-.45-.41-.14-.48-.58-.56-.94h-.48c-1.74,1.7-4.13,6.01-7.1,4.76-.39-.16-.37-.73-.63-.78-.68-.12-1.27.32-2,.08-.95-.3-1.76-1.02-1.44-2.08-.09-.1-2.44.68-2.57.76-.5.33-3.08,3.44-3.92,4.25-.89.85-1.98,1.6-2.84,2.49l10.92,5.58.33,5.01c-3.2,6.33-6.99,12.32-10.66,18.34-1.21,1.98-2.59,6.76-5.45,7.22-1.59.25-6.36.24-7.6-.7-.55-.41-.91-1.46-1.42-1.56-.77-.15-4.73,2.3-4.73,2.77.61.39.75,1.9.98,2.13.06.06.64-.29,1.46.37,1.87,1.49,1.35,5.85.24,7.59-1.26,1.97-4.21,3.22-5.87,4.48-6.65,5.05-13.12,11.32-22.29,10.23l-3.6-2.79-7.97,3.7.04.59c1.56,1.2,2.38,6.58,1.31,8.08-.51.72-4.72,2.76-5.78,3.21-4.95,2.09-10.21,2.96-15.36,4.27-1.63.41-2.95,1.43-4.87.99-.14,2.77.43,7.71,2.34,9.83,4.53,5.02,12.66,1.45,17.29-1.7,1-.68,1.9-1.94,2.73-2.6.57-.45,3.82-2.38,3.95-2.57.12-.19-.28-.72-.22-1.06.35-2,3.77-7.01,5.25-8.71,9.11-10.49,21.73-3.02,27.38,6.94,8.27,14.57,11.7,32.31,9.24,49.02-.94,6.41-6.85,13.28-11.63,17.37-3.18,2.73-7.55,4.21-11.66,2.99-2.79-.83-8.59-6.12-10.51-8.49-3.1-3.81-8.71-16.69-9.16-21.51-.14-1.51.09-3.13,0-4.66-.07-1.09-.84-2.11-.33-3.17-.58-.15-.67.23-1,.5-3.27,2.55-6.32,5.38-10.04,7.29-4.05,2.08-8.73,3.42-13.06,4.79-8.55-2.03-16.03-6.09-19.31-14.68-.43-1.12-.05-2.42-1.09-3.23-.99,1.66-2.08,3.29-3.01,4.99-8.15,14.92-15.05,30.58-23.29,45.37-2.07,3.71-2.36,6.22-6.43,8.91-5.2,3.44-8.82,2.89-14.23.35-16.75-7.86-31.29-26.46-38.93-43.07-4.57-9.93-7.33-18.01-5.63-29.08.13-.87-.1-2.21.18-3,.62-1.76,5.02-4.7,6.01-6.82,1.37-.97,12.41-5.48,14-5.66,13.5-1.55,27.59,9.43,36.18,18.83,3.41,3.72,5.72,7.4,7.49,12.17.18,0,1.22-1.87,1.4-2.26,3.11-6.65,5.5-14.01,10.23-19.77l3.82-7.47c-1.11-1.33-2.96-.66-4.45-.83-4.14-.46-10.02-.38-10.75-5.58-.32-2.31.87-5.4-1.37-6.97-4.37-3.05-3.25,1.82-6.89,2.53-1.92-.9-4.6-1-6.47-1.83-2.29-1.02-11.04-8.84-13.32-11.01-.39-.37-1.92-1.95-2.08-2.28-1.38-3.04,4.78-9.86,3.71-13.52l-4.46,3.37c-4.85,1.64-5.57-1.77-7.89-4.44-4.1-4.73-12.65-12.25-11.57-19.01.29-1.84,1.82-4.24,2.91-5.76.35-.48,1.03-.65,1.24-.92.26-.35,1.86-2.73,1.94-2.92.5-1.16-.61-2.01-1.63-2.28-.48.35-.78.74-1.37.98-1.68.69-3.97,1.53-5.71,1.95-1.58.38-4.27,1.09-5.65.05-.81-.61-2.13-6.35-2.58-7.76-1.31-4.14-3.27-8.06-2.15-12.51,3-2.65,7.4-2.95,10.85-5.13l-.09-1.64c-.39-.56-6.3-.65-7.6-1.07-11.06-3.54-19.28-7.5-27.76-15.58-10.37-9.88-12.41-16.6-16.04-30.03-.64-2.35-2.22-4.72-2.71-7.56-.24-1.39.05-4.48-.13-5.17-.16-.61-1.39-1.26-1.76-1.93C3.24,79.8.36,71.6.03,66.86c-.26-3.76.95-12.51,3.81-15.01,2.6-2.28,7.15-4.55,10.62-4.08,1.03.14,2.19.94,3.38.9,1.32-.04,2.75-1.07,4.33-.93,1.79.16,4.37,1.24,6.03,1.32,3.72.18,6.57-1.41,10.24.08,7.31,2.96,7.69,12.24,8.2,18.97-.39,2.46-2.89,2.28-2.92,2.75,3.66,5.61,1.19,13.16-2.73,17.95-1.54,1.88-4.81,3.7-5.67,5.66-1.84,4.17-1.52,5.02-5.62,8.05-1.13.83-2.71.37-2.26,2.6.65,3.2,6.67,6.91,9.51,8.17,6.86,3.03,14.15,4.83,21.62,4.44.93-.05,2.19.99,2.47-.54.45-2.48-3.58-3.71-5.14-4.88-.77-.58-3.28-3.37-3.53-4.14-.48-1.5,0-3.54,0-4.96-.02-5.51.01-13.15,2.55-18.1.05-.11,1.35-1.83,1.44-1.91.72-.62,1.77-.53,2.66-.5l-.34.99,1.34.34,3.27-10.9c.43-1.31,1.98-2.32,2.35-3.59.41-1.42-.57-1.06-1.12-1.5-1.86-1.47-3.55-2.97-2.8-5.49,1.17-3.95,2.65-4.91,4.63-7.78,2.74-3.97,5.1-9.11,9.37-11.89,7.36-4.79,6.72,2.49,11.63,5.34.73.11,2.54-2.67,2.76-3.29.79-2.24-2.35-4.96-3.22-6.59-.46-.85-1.87-4.9-1.88-5.81-.05-2.5,3.14-6.67,4.86-8.5,5.74-6.15,12.3-11.53,21.02-12,4.84-.26,4.99,3.92,6.89,7.1.21.36.23.6.76.59.65,0,3.53-2.88,4.53-3.49,2.01-1.22,4.54-1.81,6.84-2.16s4.69.66,5.65-2.35c.6-1.88-.2-4.46,1.67-6.33.66-.65,4.67-2.29,5.74-2.6C145.93,1.92,158.27,0,161.2,0s6.63.62,8.72,2.81ZM35.26,65.61c.72-1.55-2.78-8.57-3.9-10.08-.81-1.09-3.58-4.08-4.7-4.64s-5.28-1.34-6.23-.79c-.2.11-1.11,1.63-1.08,2.06.05.59,1.08,1.93,1.35,2.69,1.27,3.5,3.07,9,2.23,12.58-.42,1.81-2.36,3.88.41,4.78,2.36.76,2.9-1.87,4.37-3,1.67-1.29,4.86-2.45,6.98-2.19-.42-1.1.52-1.33.56-1.42ZM15.92,52.48c-1.73-1.7-2.1-.94-3.59-1.29-.72-.17-.72-.95-1.97-.71-1.99.39-6.07,3.62-6.82,5.55-3.62,9.32.13,25.05,7.82,31.5,11.07,9.27,29.65,5.71,31.99-10.02,1.09-7.31-7.42-10.72-13.1-7.43-.48.28-3.03,2.79-3.15,3.19-.79,2.61,2.88,5.26,5.14,5.42,1.49.1,4.34-1.41,5.36-.55,3.44,2.9-4.55,2.72-6.06,2.56-2.03-.21-3.94-1.2-5.11-2.89-1.45-2.09-.59-2.94-3.54-4.12-.67-.27-1.35-.2-1.93-.4-.55-.19-.85-.93-1.42-.93-.59,0-.87.78-1.4.95-5.42,1.74-10.65-1.38-10.79-7.1l1.56-5.14c1.11-.26,1.74.56,2.06,1.53-2.03,2.94-2.3,6.96,1.6,8.41,2.54.94,5.34.16,7.15-1.78,1.56-1.67,1.6-4.15,1.29-6.32-.47-3.31-2.68-8.03-5.09-10.41ZM44.27,67.27c1.18-1.45.07-3.51-.15-4.82-.61-3.6-1.09-7.41-3.9-10.1-2.6-2.48-6.63-1.13-9.85-.98.83,1.89,2.5,2.85,3.61,4.56,2.28,3.54,2.4,7.37,3.87,11.13l4.68,2.32c.22-1.27,1.29-1.55,1.75-2.11ZM58.63,85.43c-.14-.14-.94-.17-1.26-.41-.45,2.27-2.03,4.51-2.65,6.85-.99,3.73-1.4,9.48-1.02,13.31.1.97.45,2.27.87,3.14.34.7,3.02,2.72,3.82,3.17,1,.57,2.46.72,3.48,1.53.57,0,1.87-1.46,2.53-1.8,2.1-1.09,5.57,1.71,8.23.73l3.68-6.76c0-1.29-6.47-3.43-7.84-4.1-3.81-1.88-9.59-5.67-10.04-10.31-.09-.88.56-1.67.62-2.6.03-.43-.26-2.58-.42-2.75ZM32.7,94.37c-1.71-.8-2.67.32-4.16.36-4.64.14-10.87-1-15.17-2.86-1.04-.45-2.33-1.36-3.16-2.16-1.25,1.52-.15,4.06.65,5.67,4.64,9.32,18.39,9.09,21.85-1.01ZM61.37,150.03c-2.43.83-7.55,1.59-9.19,3.64-1.37,1.7.17,3.17.63,4.75.78,2.68,1.46,6.31,2.49,8.84.37.9,1.6,2.94,2.59,3.1.52.09,3.49-.63,4.15-.83s4.92-2.02,5-2.34c-1.58-2.42-3.04-5.27-4.03-8-.26-.71-.07-1.35-.28-1.99-.73-2.21-2.8-5.17-1.36-7.17ZM291.49,177.91c.68.61,2.28,1.67,3.11,2.06,2.9,1.36,11.55-.11,14.22-1.99,3.82-2.7.34-9.64-2.28-12.27-1.39,1.29-1.06,2.29-2.72,3.6-3.3,2.59-8.88,3.14-12.68,1.47-.74-.33-2.05-2.13-2.7.17-.55,1.93,1.62,5.67,3.06,6.97ZM310.94,179.93c-1.49,1.32-4.51,2.09-6.45,2.39-5.38.81-12.43,1.06-15.73-4.17-.73-1.16-1.06-4.23-2.84-4.05-.26.03-4.22,2.02-4.66,2.32-1.05.71-3.55,3.48-4.06,4.61-1.12,2.49-.08,5.98.92,8.42.58,1.43,1.28,3.44,2.92,3.25-.46-2.19.93-2.65-.26-4.9-.23-.43-3.1-3.7-.96-3.39,2.5.37,5.38,7.45,7.87,9.14,1.29.88,3.01.57,3.64,2.36.16,1.12-2.36.85-3.04.69-1.4-.32-4.14-4.87-6.58-3.91,2.23,4.87,2.37,9.67,8.01,11.82,3.18,1.22,5.35,1.57,8.3-.35,2.31-1.51,3.46-3.88,3.38-6.63-.03-.99-1.38-3.31-.37-4.04.44-.32,1.76-.1,2.02.45.09.19.38,3.84.36,4.24-.05,1.54-.41,3.13-.72,4.64-.11.55-.65,1.3-.58,1.65.27,1.51,4.08,1.66,4.97.74,1.54-2.9,4-4.89,4.83-8.17.44-1.73.78-5.38.69-7.13-.05-1.08-1.26-3.5-1.07-3.89.78-1.52,2.71-.81,3.12.57s-.26,2.45-.23,3.56c.04,1.45,1.03,3.23.63,4.87,4.19-1.71,5.96-6.49,4.96-10.79-.47-2.05-3.77-8.9-5.64-9.72-1.65-.72-1.4.57-1.56,1.09-.34,1.09-1.08,3.63-1.86,4.32ZM215.25,238.81c-3.49-3.97-10.29-8.34-15.64-6.37-.8.3-5.31,2.74-4.58,3.59,3.26.73,4.87-.54,7.32,2.18,3.17,3.52,1.79,7.81.07,11.71-2,4.53-6.6,10.88-9.72,14.61-.74.88-4.3,4.96-4.31,5.68-.02.86.35,1.89.33,3-.01,1.05-.39,1.94-.37,2.97.29,10.29,6.77,24.79,15.71,30.32,7.83,4.84,16.56-3.53,20.36-9.91,7.06-11.85,3.27-33.75-2.33-45.79-1.45-3.11-4.7-9.55-6.85-11.99ZM114.03,311.7c.58-1.73,1.02-3.4,1.29-5.21,1.45-9.87-.54-27.33-4.29-36.62-2.18-5.4-3.59-7.12-7.51-11.16-6.93-7.13-17.58-16.61-27.98-17.36-5-.36-6.81,1.23-11.16,2.53-1.76.53-3.04.16-5.09,1.24-2.52,1.32-5.44,4.37-6.59,6.9,2.5-1,4.89-2.41,7.58-2.92,7.66-1.45,20.3,3.19,25.59,8.92,14.25,15.4,24.76,29.74,27.7,51.25.11.83-.65,2.01.46,2.42ZM82.58,258.16c-4-3.14-13.76-6.93-18.77-7-3.98-.05-9.2,1.53-11.24,5.25-2.15,3.94-.56,11.93.79,16.13,5.99,18.75,22.21,41.14,39.77,50.56,3.65,1.96,7.01,3.56,11.32,2.52,1.79-.43,1.36-1.89,2.09-2.91.47-.66,1.44-.95,2.11-1.89,8.44-11.9-3.66-35-10.8-45.42-3-4.37-11.31-14.14-15.26-17.23Z"/>
      <circle class="cls-1" cx="124.78" cy="122.84" r="6.61"/>
      <path class="cls-1" d="M174.95,118.5c1.43-.06,3.63.07,4.57,1.21.26.31,1.75,3.26,1.79,3.56.24,1.8-2.24,6.8-4.18,7.35-.93.27-5.48.31-6.43-.1-3.18-1.35-3.29-6.94-1.34-9.34.3-.37.85-.5,1.18-.82.39-.38.59-1.02,1.03-1.3.63-.4,2.55-.53,3.38-.56Z"/>
      <path class="cls-1" d="M166.67,143c-1.14.76-2.1-1.54-2.99-2.11-2.54-1.65-2.48,1.76-3.8,3.16-4.94,5.26-14.42,8.71-21.59,7.89-4.48-.51-7.46-3.24-9.78-6.9-1.89.46-1.04,1.1-1.3,1.65-.34.76-1.45.74-2.18.68-.6-.6,2.5-4.31,3.12-4.88.32-.3,2.78-1.93,2.88-1.78-.19.74.33,1.58.3,2.19-.04.87-.9.48-.03,2.04,4.46,7.92,16.87,4.95,23.15,1.09,2.37-1.46,2.74-2.92,4.15-4.34,1.06-1.06,2.05-.08,1.06-2.95-1.08-.51-2.3.56-3.07.54-1.57-.03-1.95-1.61-.9-2.08.64-.28,1.38-.11,2.03-.32s1.3-.78,1.84-.86c1.81-.24,6.99,2.63,7.41,4.57.11.51.02,2.18-.3,2.39Z"/>
      <path class="cls-1" d="M177.28,105.11c1.73,1.86-2.52,4.17-2.53,4.75.5.95,3.05,3.47,2.55,4.45-.04.07-1.05,1.05-1.12,1.07-1.18.23-1.21-1.22-1.8-1.86-.48-.52-1.26-.73-1.86-1.15-.29-.2-.36-.81-.56-.93-1.21-.71-2.88-.04-2.96,1.42-.08,1.38,1.32,1.8.96,3.29-.83,1.38-1.25.06-1.33.02-.27-.12-.55.13-.92-.27-.84-.92-1.5-2.59-1.37-3.83-3.51-1.36-4.38,1.98-2.96,4.63-1.18-.24-1.06,1.07-2.29.98-.74-.99.25-1.69.22-2.42-.04-.87-1.03-2.32-.59-3.56l-2.14-.34c-1.83,1.88.02,5.48-3.44,5.61-2.16.08.64-3.9.82-4.52.09-.29.32-2.05.28-2.27-.19-1.17-3.51-2.16-.98-4.12,1.89-.3,2.91,2.29,3.86,2.73,3.59,1.68,11.53.89,14.71-1.49.76-.57,2.53-3.19,3.46-2.18Z"/>
      <path class="cls-1" d="M142.74,112.32c-.26-.16-1.44-4.53-3.19-4.28-.92,2.97-7.26,4.29-9.65,2.96-.83-.46-1.78-2.98-2.69-2.98-1.85-.01-3.42,4.94-5.18,3.87-1.02-.62-.72-2.45.16-3.19,5.29-4.46,10.18-6.59,17.14-3.46.47.21,3.1,1.7,3.39,1.94.49.42,1.95,3.11,1.95,3.69,0,.97-1.07,1.98-1.93,1.45Z"/>
      <path class="cls-1" d="M169.6,163.13c.37.52.95,3.79,1.48,5.02,2.58,6.06,8.59,11.55,14.05,14.97,1.01.63,5.29,1.58,2.78,3.6-1.44,1.16-3.63-1.66-4.89-2.5-1.61-1.07-3.38-1.9-4.94-3.06-5.93-4.4-8.21-10.63-11.34-17.02.48-1.21,1.79-2.55,2.88-1.01Z"/>
      <path class="cls-1" d="M165.37,71.03c-.14-.63-.36-1.05-.28-1.74.21-1.87,2.01-4.59,2.79-6.24,2.96-6.27,6.39-12.16,9.88-18.12,1.08-1.85,1.66-3.96,3.11-5.55,1.15.65.66,2.18.24,3.23-1.46,3.67-5.75,9.58-7.8,13.53s-4.06,9.69-6.26,13.07c-.2.31-1.38,2.05-1.67,1.83Z"/>
      <path class="cls-1" d="M123.65,92.42l-.29,1.61-.33-.66-.83.56c-5.08-1.51-10.54-2.86-15.5-4.73-1.07-.4-7.41-2.78-6-4.49l22.95,7.72Z"/>
      <path class="cls-1" d="M187.49,144.57c3.39,2.67,7.84,4.34,11.61,6.23.39.19,1.25.42,1.27.89-4.5,1.14-10.44-2.13-13.98-4.85-.43-.33-3.41-3.01-3.58-3.25-.59-.81-.63-2.38.66-2.5,1.47,0,2.86,2.56,4.02,3.47Z"/>
      <path class="cls-1" d="M127.37,58.7c.37-.28,2.55,2.89,2.81,3.35,1.44,2.57,6.6,14.27,6.39,16.65-.03.38.26.62-.37.99-1.43-.05-4.18-9.09-4.93-10.73-.95-2.07-2.4-4-3.29-6.04-.64-1.46-1.32-2.63-.61-4.22Z"/>
      <path class="cls-1" d="M159.7,199.7c-.86.79-2.59-4.81-2.76-5.4-1.23-4.29-1.99-8.87-3.18-13.15-.3-1.08-2.59-5.8-1.72-6.44.96-.04,2.01,1.07,2.25,1.92,1.73,6.26,2.69,12.85,5.01,18.99l.41,4.09Z"/>
      <path class="cls-1" d="M112.98,138.65c-1.35.47-2.82,1.05-4.05,1.77-3.1,1.82-7.45,5.33-10.38,7.62-.61.48-3.74,3.9-3.42.88.18-1.62,1.16-1.44,1.89-2.07,2.79-2.41,6.24-4.82,9.18-6.81,2.31-1.57,4.02-2.43,6.84-3.01l-.05,1.62Z"/>
      <path class="cls-1" d="M210.7,78.37c-2.73,2.59-7.1,1.77-10.48,2.35-3.19.54-6.57,2.1-9.42,3.58-1.19.62-1.69,1.62-3.43,1.4-.7-.84,3.62-3.61,4.43-4.06,5.45-3.09,12.8-2.78,18.9-3.27Z"/>
      <path class="cls-1" d="M190.87,115.84c2.55,1,5.18,1.98,7.82,2.7,1.86.51,7.9,1.23,9.02,2.31.4.39.39.82.32,1.33-.34.6-.48.34-.92.3-3.73-.32-8.02-1.97-11.67-3.03-1.58-.46-4.55-.62-5.57-1.76s-.31-1.66,1.01-1.86Z"/>
      <path class="cls-1" d="M113.37,158.03c.81,3.22-2.49,4.87-4.14,7.03-1.08,1.42-6.32,10.95-7.03,10.96-1.06.03.4-2.97.6-3.4,2.05-4.38,6.17-10.3,9.43-13.9.34-.37.49-.84,1.13-.7Z"/>
      <path class="cls-1" d="M169.49,99.16c-.2.15.06.73-.61.53-.56-1.98-5.82-4.02-6.13-5.23-.21-.84,1.41-2.2,1.97-1.95l5.97,5.39c.13.55-.81.96-1.19,1.26Z"/>
      <path class="cls-1" d="M128.37,98.36l.51-1.98,6.64-6.35c.79.65.66,1.7.19,2.52-.42.73-7.06,6.19-7.35,5.81Z"/>
      <path class="cls-1" d="M143.03,125.36c.36.86.73,5.15-.17,5.33-2.48.49-1.71-6.56.17-5.33Z"/>
      <path class="cls-1" d="M148.67,126.06c.44.72.68,4.59-.14,4.63-1.72-.74-2.51-2.78-1.37-4.36l1.5-.27Z"/>
    </g>
  </g>
</svg>